# xmcd CD database file generated by OrangeCD 6.4
#
# Track frame offsets:
#	150
#	9233
#	23413
#	38698
#	53781
#	67903
#	82103
#	100458
#	114177
#	128253
#	144263
#	157545
#	171952
#	186950
#
# Disc length: 2704 seconds
#
# Revision: 0
# Processed by: cddbd v1.5.2PL0 Copyright (c) Steve Scherf et al.
# Submitted via: OrangeCD 6.4
#
DISCID=990a8e0e
DTITLE=Red Molly - Light in the Sky
DYEAR=2011
DGENRE=
TTITLE0=Dear Someone
TTITLE1=Walk Beside Me
TTITLE2=Come On In My Kitchen
TTITLE3=Do I Ever Cross Your Mind
TTITLE4=Oh My Michael
TTITLE5=Does My Ring Burn Your Finger
TTITLE6=Ghost
TTITLE7=Hold It All
TTITLE8=Hello Goodbye
TTITLE9=Your Long Journey
TTITLE10=By the Mark
TTITLE11=It's Too Late to Call It A Night
TTITLE12=Why Should I Cry
TTITLE13=Fever
EXTD=
EXTT0=
EXTT1=
EXTT2=
EXTT3=
EXTT4=
EXTT5=
EXTT6=
EXTT7=
EXTT8=
EXTT9=
EXTT10=
EXTT11=
EXTT12=
EXTT13=
PLAYORDER=
